<?xml version="1.0" encoding="utf-8"?>
<!-- Generated by IcoMoon.io -->
<!DOCTYPE svg PUBLIC "-//W3C//DTD SVG 1.1//EN" "http://www.w3.org/Graphics/SVG/1.1/DTD/svg11.dtd">
<svg xmlns="http://www.w3.org/2000/svg" viewBox="0 0 24 24">
	<path d="M12 1a11 11 0 1 0 11 11A11 11 0 0 0 12 1zM7.34 9.25h9.32a14.54 14.54 0 0 1 0 5.5H7.34a14.54 14.54 0 0 1 0-5.5zm10.25 0h4.1a9.89 9.89 0 0 1 0 5.5h-4.1a15.4 15.4 0 0 0 0-5.5zm3.79-.92h-4a15.16 15.16 0 0 0-3.08-6.14 10.08 10.08 0 0 1 7.08 6.14zM12.86 2a14.41 14.41 0 0 1 3.58 6.37H7.56A14.41 14.41 0 0 1 11.14 2H12c.29 0 .58-.06.86 0zm-3.16.19a15.16 15.16 0 0 0-3.08 6.14h-4A10.08 10.08 0 0 1 9.7 2.19zM2.31 9.25h4.1a15.4 15.4 0 0 0 0 5.5h-4.1a9.89 9.89 0 0 1 0-5.5zm.31 6.42h4a15.16 15.16 0 0 0 3.08 6.14 10.08 10.08 0 0 1-7.08-6.14zM11.14 22a14.41 14.41 0 0 1-3.58-6.37h8.88A14.41 14.41 0 0 1 12.86 22H12c-.29 0-.58.06-.86 0zm3.16-.23a15.16 15.16 0 0 0 3.08-6.14h4a10.08 10.08 0 0 1-7.08 6.18z"></path>
</svg>