<?xml version="1.0" encoding="UTF-8" standalone="no"?>
<svg xmlns="http://www.w3.org/2000/svg" viewBox="0 0 24 24"><path d="M23 5.18a9 9 0 0 1-2.59.71 4.52 4.52 0 0 0 2-2.5 9.18 9.18 0 0 1-2.86 1.1 4.51 4.51 0 0 0-7.81 3.08 4.93 4.93 0 0 0 .11 1 12.82 12.82 0 0 1-9.3-4.71 4.45 4.45 0 0 0-.61 2.27 4.51 4.51 0 0 0 2 3.75 4.45 4.45 0 0 1-2.05-.56v.08a4.52 4.52 0 0 0 3.61 4.43 4.54 4.54 0 0 1-1.18.17 4.63 4.63 0 0 1-.85-.08A4.5 4.5 0 0 0 7.68 17a9 9 0 0 1-5.6 2A9.51 9.51 0 0 1 1 18.91a12.79 12.79 0 0 0 6.92 2A12.76 12.76 0 0 0 20.76 8.1v-.59A9.23 9.23 0 0 0 23 5.18z"></path></svg>