<?xml version="1.0" encoding="utf-8"?>
<!-- Generator: Adobe Illustrator 23.1.0, SVG Export Plug-In . SVG Version: 6.00 Build 0)  -->
<svg version="1.1" id="Слой_1" xmlns="http://www.w3.org/2000/svg" xmlns:xlink="http://www.w3.org/1999/xlink" x="0px" y="0px"
	 viewBox="0 0 96 16" style="enable-background:new 0 0 96 16;" xml:space="preserve">
<style type="text/css">
	.st0{clip-path:url(#SVGID_2_);}
	.st1{fill-rule:evenodd;clip-rule:evenodd;fill:#FFB600;}
</style>
<g>
	<defs>
		<rect id="SVGID_1_" width="93.1" height="16"/>
	</defs>
	<clipPath id="SVGID_2_">
		<use xlink:href="#SVGID_1_"  style="overflow:visible;"/>
	</clipPath>
	<g class="st0">
		<path class="st1" d="M8.2,12.3l-4.8,2.5l0.9-5.3L0.4,5.6l5.4-0.8L8.2,0l2.5,4.8L16,5.6l-3.9,3.8l0.9,5.3L8.2,12.3z"/>
		<path class="st1" d="M28.2,12.3l-4.8,2.5l0.9-5.3l-3.9-3.8l5.4-0.8L28.2,0l2.5,4.8L36,5.6l-3.9,3.8l0.9,5.3L28.2,12.3z"/>
		<path class="st1" d="M48.2,12.3l-4.8,2.5l0.9-5.3l-3.9-3.8l5.4-0.8L48.2,0l2.5,4.8L56,5.6l-3.9,3.8l0.9,5.3L48.2,12.3z"/>
		<path class="st1" d="M68.2,12.3l-4.7,2.5l0.9-5.3l-3.9-3.8l5.4-0.8L68.2,0l2.5,4.8L76,5.6l-3.9,3.8l0.9,5.3L68.2,12.3z"/>
		<path class="st1" d="M88.2,12.3l-4.8,2.5l0.9-5.3l-3.9-3.8l5.4-0.8L88.2,0l2.5,4.8L96,5.6l-3.9,3.8l0.9,5.3L88.2,12.3z"/>
	</g>
</g>
</svg>
