<?xml version="1.0" encoding="utf-8"?>
<!-- Generator: Adobe Illustrator 23.1.0, SVG Export Plug-In . SVG Version: 6.00 Build 0)  -->
<svg width="13" height="13" version="1.1" xmlns="http://www.w3.org/2000/svg"><g id="Symbols" stroke="none" stroke-width="1" fill="none" fill-rule="evenodd"><g id="rate-graph" transform="translate(-820.000000, -38.000000)"><g id="graph" transform="translate(2.000000, -3.000000)"><g id="key"><g id="?" transform="translate(819.000000, 42.000000)"><g id="Group-6"><g id="Group-14"><circle id="Oval" stroke="#00B9FF" cx="5.5" cy="5.5" r="6"></circle><path d="M4.654,6.626 L4.645,6.176 C4.636,5.609 5.05,5.249 5.41,4.853 C5.698,4.556 5.986,4.232 5.986,3.827 C5.986,3.377 5.689,3.125 5.266,3.125 C4.924,3.125 4.582,3.305 4.357,3.611 L3.52,2.828 C3.925,2.324 4.618,2 5.365,2 C6.373,2 7.264,2.576 7.264,3.755 C7.264,4.457 6.868,4.925 6.472,5.312 C6.103,5.654 5.752,5.924 5.725,6.248 L5.698,6.626 L4.654,6.626 Z M5.194,8.777 C4.789,8.777 4.465,8.462 4.465,8.066 C4.465,7.67 4.789,7.346 5.194,7.346 C5.59,7.346 5.923,7.67 5.923,8.066 C5.923,8.462 5.59,8.777 5.194,8.777 Z" id="?" fill="#00B9FF"></path></g></g></g></g></g></g></g></svg>